<svg width="287" height="46" viewBox="0 0 287 46" fill="none" xmlns="http://www.w3.org/2000/svg">
<path d="M8.87074 45.8295H1.28551L1.96733 21.3864H8.20597L8.87074 45.8295ZM5.08665 10.4773C6.16619 10.4773 7.11506 10.875 7.93324 11.6705C8.75142 12.4659 9.16619 13.4318 9.17756 14.5682C9.16619 15.6818 8.75142 16.6364 7.93324 17.4318C7.11506 18.2273 6.16619 18.625 5.08665 18.625C3.96165 18.625 2.99574 18.2273 2.18892 17.4318C1.3821 16.6364 0.984375 15.6818 0.995739 14.5682C0.984375 13.8068 1.16051 13.1193 1.52415 12.5057C1.89915 11.892 2.39915 11.4034 3.02415 11.0398C3.64915 10.6648 4.33665 10.4773 5.08665 10.4773ZM15.8935 37V2.09091H29.8707C32.4389 2.09091 34.581 2.47159 36.2969 3.23295C38.0128 3.99432 39.3026 5.05114 40.1662 6.40341C41.0298 7.74432 41.4616 9.28977 41.4616 11.0398C41.4616 12.4034 41.1889 13.6023 40.6435 14.6364C40.098 15.6591 39.348 16.5 38.3935 17.1591C37.4503 17.8068 36.3707 18.267 35.1548 18.5398V18.8807C36.4844 18.9375 37.7287 19.3125 38.8878 20.0057C40.0582 20.6989 41.0071 21.6705 41.7344 22.9205C42.4616 24.1591 42.8253 25.6364 42.8253 27.3523C42.8253 29.2045 42.3651 30.858 41.4446 32.3125C40.5355 33.7557 39.1889 34.8977 37.4048 35.7386C35.6207 36.5795 33.4219 37 30.8082 37H15.8935ZM23.2741 30.9659H29.2912C31.348 30.9659 32.848 30.5739 33.7912 29.7898C34.7344 28.9943 35.206 27.9375 35.206 26.6193C35.206 25.6534 34.973 24.8011 34.5071 24.0625C34.0412 23.3239 33.3764 22.7443 32.5128 22.3239C31.6605 21.9034 30.6435 21.6932 29.4616 21.6932H23.2741V30.9659ZM23.2741 16.6989H28.7457C29.7571 16.6989 30.6548 16.5227 31.4389 16.1705C32.2344 15.8068 32.8594 15.2955 33.3139 14.6364C33.7798 13.9773 34.0128 13.1875 34.0128 12.267C34.0128 11.0057 33.5639 9.98864 32.6662 9.21591C31.7798 8.44318 30.5185 8.05682 28.8821 8.05682H23.2741V16.6989ZM47.4915 37V10.8182H54.7528V37H47.4915ZM51.1392 7.44318C50.0597 7.44318 49.1335 7.08523 48.3608 6.36932C47.5994 5.64204 47.2188 4.77273 47.2188 3.76136C47.2188 2.76136 47.5994 1.90341 48.3608 1.1875C49.1335 0.460226 50.0597 0.0965891 51.1392 0.0965891C52.2188 0.0965891 53.1392 0.460226 53.9006 1.1875C54.6733 1.90341 55.0597 2.76136 55.0597 3.76136C55.0597 4.77273 54.6733 5.64204 53.9006 6.36932C53.1392 7.08523 52.2188 7.44318 51.1392 7.44318ZM72.5014 37.5114C69.8082 37.5114 67.4901 36.9659 65.5469 35.875C63.6151 34.7727 62.1264 33.2159 61.081 31.2045C60.0355 29.1818 59.5128 26.7898 59.5128 24.0284C59.5128 21.3352 60.0355 18.9716 61.081 16.9375C62.1264 14.9034 63.598 13.3182 65.4957 12.1818C67.4048 11.0455 69.6435 10.4773 72.2116 10.4773C73.9389 10.4773 75.5469 10.7557 77.0355 11.3125C78.5355 11.858 79.8423 12.6818 80.956 13.7841C82.081 14.8864 82.956 16.2727 83.581 17.9432C84.206 19.6023 84.5185 21.5455 84.5185 23.7727V25.767H62.4105V21.267H77.6832C77.6832 20.2216 77.456 19.2955 77.0014 18.4886C76.5469 17.6818 75.9162 17.0511 75.1094 16.5966C74.3139 16.1307 73.3878 15.8977 72.331 15.8977C71.2287 15.8977 70.2514 16.1534 69.3991 16.6648C68.5582 17.1648 67.8991 17.8409 67.4219 18.6932C66.9446 19.5341 66.7003 20.4716 66.6889 21.5057V25.7841C66.6889 27.0795 66.9276 28.1989 67.4048 29.142C67.8935 30.0852 68.581 30.8125 69.4673 31.3239C70.3537 31.8352 71.4048 32.0909 72.6207 32.0909C73.4276 32.0909 74.1662 31.9773 74.8366 31.75C75.5071 31.5227 76.081 31.1818 76.5582 30.7273C77.0355 30.2727 77.3991 29.7159 77.6491 29.0568L84.3651 29.5C84.0241 31.1136 83.3253 32.5227 82.2685 33.7273C81.223 34.9205 79.8707 35.8523 78.2116 36.5227C76.5639 37.1818 74.6605 37.5114 72.5014 37.5114ZM96.5185 21.8636V37H89.2571V10.8182H96.1776V15.4375H96.4844C97.0639 13.9148 98.0355 12.7102 99.3991 11.8239C100.763 10.9261 102.416 10.4773 104.359 10.4773C106.178 10.4773 107.763 10.875 109.115 11.6705C110.467 12.4659 111.518 13.6023 112.268 15.0795C113.018 16.5455 113.393 18.2955 113.393 20.3295V37H106.132V21.625C106.143 20.0227 105.734 18.7727 104.905 17.875C104.075 16.9659 102.933 16.5114 101.479 16.5114C100.501 16.5114 99.6378 16.7216 98.8878 17.142C98.1491 17.5625 97.5696 18.1761 97.1491 18.983C96.7401 19.7784 96.5298 20.7386 96.5185 21.8636ZM142.588 10.8182L133.435 37H125.253L116.099 10.8182H123.77L129.207 29.5511H129.48L134.901 10.8182H142.588ZM157.392 37.5114C154.699 37.5114 152.381 36.9659 150.438 35.875C148.506 34.7727 147.017 33.2159 145.972 31.2045C144.926 29.1818 144.403 26.7898 144.403 24.0284C144.403 21.3352 144.926 18.9716 145.972 16.9375C147.017 14.9034 148.489 13.3182 150.386 12.1818C152.295 11.0455 154.534 10.4773 157.102 10.4773C158.83 10.4773 160.438 10.7557 161.926 11.3125C163.426 11.858 164.733 12.6818 165.847 13.7841C166.972 14.8864 167.847 16.2727 168.472 17.9432C169.097 19.6023 169.409 21.5455 169.409 23.7727V25.767H147.301V21.267H162.574C162.574 20.2216 162.347 19.2955 161.892 18.4886C161.438 17.6818 160.807 17.0511 160 16.5966C159.205 16.1307 158.278 15.8977 157.222 15.8977C156.119 15.8977 155.142 16.1534 154.29 16.6648C153.449 17.1648 152.79 17.8409 152.312 18.6932C151.835 19.5341 151.591 20.4716 151.58 21.5057V25.7841C151.58 27.0795 151.818 28.1989 152.295 29.142C152.784 30.0852 153.472 30.8125 154.358 31.3239C155.244 31.8352 156.295 32.0909 157.511 32.0909C158.318 32.0909 159.057 31.9773 159.727 31.75C160.398 31.5227 160.972 31.1818 161.449 30.7273C161.926 30.2727 162.29 29.7159 162.54 29.0568L169.256 29.5C168.915 31.1136 168.216 32.5227 167.159 33.7273C166.114 34.9205 164.761 35.8523 163.102 36.5227C161.455 37.1818 159.551 37.5114 157.392 37.5114ZM181.409 21.8636V37H174.148V10.8182H181.068V15.4375H181.375C181.955 13.9148 182.926 12.7102 184.29 11.8239C185.653 10.9261 187.307 10.4773 189.25 10.4773C191.068 10.4773 192.653 10.875 194.006 11.6705C195.358 12.4659 196.409 13.6023 197.159 15.0795C197.909 16.5455 198.284 18.2955 198.284 20.3295V37H191.023V21.625C191.034 20.0227 190.625 18.7727 189.795 17.875C188.966 16.9659 187.824 16.5114 186.369 16.5114C185.392 16.5114 184.528 16.7216 183.778 17.142C183.04 17.5625 182.46 18.1761 182.04 18.983C181.631 19.7784 181.42 20.7386 181.409 21.8636ZM204.007 37V10.8182H211.268V37H204.007ZM207.655 7.44318C206.575 7.44318 205.649 7.08523 204.876 6.36932C204.115 5.64204 203.734 4.77273 203.734 3.76136C203.734 2.76136 204.115 1.90341 204.876 1.1875C205.649 0.460226 206.575 0.0965891 207.655 0.0965891C208.734 0.0965891 209.655 0.460226 210.416 1.1875C211.189 1.90341 211.575 2.76136 211.575 3.76136C211.575 4.77273 211.189 5.64204 210.416 6.36932C209.655 7.08523 208.734 7.44318 207.655 7.44318ZM226.733 37.4261C224.744 37.4261 222.943 36.9148 221.33 35.892C219.727 34.858 218.455 33.3409 217.511 31.3409C216.58 29.3295 216.114 26.8636 216.114 23.9432C216.114 20.9432 216.597 18.4489 217.562 16.4602C218.528 14.4602 219.813 12.9659 221.415 11.9773C223.028 10.9773 224.795 10.4773 226.716 10.4773C228.182 10.4773 229.403 10.7273 230.381 11.2273C231.369 11.7159 232.165 12.3295 232.767 13.0682C233.381 13.7955 233.847 14.5114 234.165 15.2159H234.386V2.09091H241.631V37H234.472V32.8068H234.165C233.824 33.5341 233.341 34.2557 232.716 34.9716C232.102 35.6761 231.301 36.2614 230.312 36.7273C229.335 37.1932 228.142 37.4261 226.733 37.4261ZM229.034 31.6477C230.205 31.6477 231.193 31.3295 232 30.6932C232.818 30.0455 233.443 29.142 233.875 27.983C234.318 26.8239 234.54 25.4659 234.54 23.9091C234.54 22.3523 234.324 21 233.892 19.8523C233.46 18.7045 232.835 17.8182 232.017 17.1932C231.199 16.5682 230.205 16.2557 229.034 16.2557C227.841 16.2557 226.835 16.5795 226.017 17.2273C225.199 17.875 224.58 18.7727 224.159 19.9205C223.739 21.0682 223.528 22.3977 223.528 23.9091C223.528 25.4318 223.739 26.7784 224.159 27.9489C224.591 29.108 225.21 30.017 226.017 30.6761C226.835 31.3239 227.841 31.6477 229.034 31.6477ZM259.43 37.5114C256.783 37.5114 254.493 36.9489 252.561 35.8239C250.641 34.6875 249.158 33.108 248.112 31.0852C247.067 29.0511 246.544 26.6932 246.544 24.0114C246.544 21.3068 247.067 18.9432 248.112 16.9205C249.158 14.8864 250.641 13.3068 252.561 12.1818C254.493 11.0455 256.783 10.4773 259.43 10.4773C262.078 10.4773 264.362 11.0455 266.283 12.1818C268.214 13.3068 269.703 14.8864 270.749 16.9205C271.794 18.9432 272.317 21.3068 272.317 24.0114C272.317 26.6932 271.794 29.0511 270.749 31.0852C269.703 33.108 268.214 34.6875 266.283 35.8239C264.362 36.9489 262.078 37.5114 259.43 37.5114ZM259.464 31.8864C260.669 31.8864 261.675 31.5455 262.482 30.8636C263.288 30.1705 263.896 29.2273 264.305 28.0341C264.726 26.8409 264.936 25.483 264.936 23.9602C264.936 22.4375 264.726 21.0795 264.305 19.8864C263.896 18.6932 263.288 17.75 262.482 17.0568C261.675 16.3636 260.669 16.017 259.464 16.017C258.249 16.017 257.226 16.3636 256.396 17.0568C255.578 17.75 254.959 18.6932 254.538 19.8864C254.129 21.0795 253.925 22.4375 253.925 23.9602C253.925 25.483 254.129 26.8409 254.538 28.0341C254.959 29.2273 255.578 30.1705 256.396 30.8636C257.226 31.5455 258.249 31.8864 259.464 31.8864ZM285.714 2.09091L285.05 26.5341H278.811L278.129 2.09091H285.714ZM281.93 37.4432C280.805 37.4432 279.839 37.0455 279.033 36.25C278.226 35.4432 277.828 34.4773 277.839 33.3523C277.828 32.2386 278.226 31.2841 279.033 30.4886C279.839 29.6932 280.805 29.2955 281.93 29.2955C283.01 29.2955 283.959 29.6932 284.777 30.4886C285.595 31.2841 286.01 32.2386 286.021 33.3523C286.01 34.1023 285.811 34.7898 285.425 35.4148C285.05 36.0284 284.555 36.5227 283.942 36.8977C283.328 37.2614 282.658 37.4432 281.93 37.4432Z" fill="white"/>
</svg>
