<svg width="456" height="456" viewBox="0 0 456 456" fill="none" xmlns="http://www.w3.org/2000/svg">
<rect width="456" height="456" rx="5" fill="#062C53" fill-opacity="0.8"/>
<g clip-path="url(#clip0_737_67)">
<path d="M315.885 228.244L315.543 227.316C298.941 181.516 271.695 140.354 236.1 107.15L234.488 105.686C232.682 103.977 230.24 103 227.75 103C225.26 103 222.818 103.977 221.012 105.686L219.4 107.15C183.805 140.354 156.559 181.516 139.957 227.316L139.615 228.244C135.904 238.4 134 249.191 134 260.031C134 311.35 176.383 353 227.75 353C279.117 353 321.5 311.35 321.5 260.031C321.5 249.191 319.596 238.449 315.885 228.244ZM271.549 252.414C273.551 256.955 274.576 261.887 274.576 266.818C274.576 292.697 253.58 313.938 227.701 313.938C201.822 313.938 180.826 292.697 180.826 266.818C180.826 261.887 181.852 256.906 183.854 252.414L184.781 250.314C192.496 233.029 203.287 217.258 216.666 203.879L221.012 199.533C222.77 197.775 225.162 196.799 227.652 196.799C230.143 196.799 232.535 197.775 234.293 199.533L238.639 203.879C252.018 217.258 262.857 233.029 270.523 250.314L271.451 252.414H271.549Z" fill="white"/>
</g>
<defs>
<clipPath id="clip0_737_67">
<rect width="187.5" height="250" fill="white" transform="translate(134 103)"/>
</clipPath>
</defs>
</svg>
